<svg width="24" height="21" viewBox="0 0 24 21" fill="none" xmlns="http://www.w3.org/2000/svg">
    <path d="M21.75 3.77778H12.75L9.75 0.444443H2.25C1.00734 0.444443 0 1.56371 0 2.94444V17.9444C0 19.3252 1.00734 20.4444 2.25 20.4444H21.75C22.9927 20.4444 24 19.3252 24 17.9444V6.27778C24 4.89705 22.9927 3.77778 21.75 3.77778ZM17.25 12.5278C17.25 12.9882 16.9144 13.3611 16.5 13.3611H13.125V17.1111C13.125 17.5715 12.7894 17.9444 12.375 17.9444H11.625C11.2106 17.9444 10.875 17.5715 10.875 17.1111V13.3611H7.5C7.08562 13.3611 6.75 12.9882 6.75 12.5278V11.6944C6.75 11.234 7.08562 10.8611 7.5 10.8611H10.875V7.11111C10.875 6.65069 11.2106 6.27778 11.625 6.27778H12.375C12.7894 6.27778 13.125 6.65069 13.125 7.11111V10.8611H16.5C16.9144 10.8611 17.25 11.234 17.25 11.6944V12.5278Z" fill="#D2CBC1"/>
</svg>
