<svg width="23" height="26" viewBox="0 0 23 26" fill="none" xmlns="http://www.w3.org/2000/svg">
<path d="M20.9923 0.526306H1.87034C1.25245 0.526306 0.764648 0.979022 0.764648 1.54492V24.2939C0.764648 24.8598 1.25245 25.2842 1.87034 25.2842H20.9923C21.6102 25.2842 22.098 24.8598 22.098 24.2939V1.54492C22.098 0.979022 21.6102 0.526306 20.9923 0.526306ZM11.3988 24.7466C11.0411 24.7466 10.7809 24.5202 10.7809 24.209C10.7809 23.8978 11.0411 23.6431 11.3988 23.6431C11.7565 23.6431 12.0167 23.8978 12.0167 24.209C12.0167 24.5202 11.7565 24.7466 11.3988 24.7466ZM19.9191 23.1904H2.78091V2.64841H12.4069V8.90155C12.4069 9.01473 12.472 9.04302 12.5695 8.95814L15.1386 6.66626C15.2362 6.58138 15.3663 6.58138 15.4638 6.66626L18.0329 8.95814C18.1305 9.04302 18.1955 9.01473 18.1955 8.90155V2.64841H19.9191V23.1904ZM18.0655 12.0706H4.79717C4.69961 12.0706 4.63457 12.1554 4.63457 12.2403V13.1741C4.63457 13.2589 4.69961 13.3155 4.79717 13.3155H18.0655C18.163 13.3155 18.2281 13.2589 18.2281 13.1741V12.2403C18.2281 12.1554 18.163 12.0706 18.0655 12.0706ZM18.0655 14.419H4.79717C4.69961 14.419 4.63457 14.4756 4.63457 14.5605V15.4942C4.63457 15.6074 4.69961 15.664 4.79717 15.664H18.0655C18.163 15.664 18.2281 15.6074 18.2281 15.4942V14.5605C18.2281 14.4756 18.163 14.419 18.0655 14.419ZM18.0655 16.8241H4.79717C4.69961 16.8241 4.63457 16.909 4.63457 16.9938V17.9276C4.63457 18.0125 4.69961 18.069 4.79717 18.069H18.0655C18.163 18.069 18.2281 18.0125 18.2281 17.9276V16.9938C18.2281 16.909 18.163 16.8241 18.0655 16.8241ZM18.0655 19.1725H4.79717C4.69961 19.1725 4.63457 19.2291 4.63457 19.314V20.2477C4.63457 20.3326 4.69961 20.4175 4.79717 20.4175H18.0655C18.163 20.4175 18.2281 20.3326 18.2281 20.2477V19.314C18.2281 19.2291 18.163 19.1725 18.0655 19.1725Z" fill="#BFAEA0"/>
</svg>
