<svg width="36" height="25" viewBox="0 0 36 25" fill="none" xmlns="http://www.w3.org/2000/svg">
<path d="M21.6094 23.3906C21.8672 23.6484 22.1953 23.7891 22.582 23.7891C23.3555 23.7891 23.9766 23.1797 23.9766 22.4062C23.9766 22.0195 23.8125 21.668 23.543 21.3984L15.3398 13.3828L23.543 5.39062C23.8125 5.12109 23.9766 4.75781 23.9766 4.38281C23.9766 3.60938 23.3555 3 22.582 3C22.1953 3 21.8672 3.14062 21.6094 3.39844L12.4922 12.3047C12.1641 12.6094 12.0117 12.9844 12 13.3945C12 13.8047 12.1641 14.1562 12.4922 14.4727L21.6094 23.3906Z" fill="#D2CBC1"/>
</svg>
