<svg width="24" height="20" viewBox="0 0 24 20" fill="none" xmlns="http://www.w3.org/2000/svg">
    <path d="M21.75 3.33333H12.75L9.75 0H2.25C1.00734 0 0 1.11927 0 2.5V17.5C0 18.8807 1.00734 20 2.25 20H21.75C22.9927 20 24 18.8807 24 17.5V5.83333C24 4.4526 22.9927 3.33333 21.75 3.33333ZM17.25 12.0833C17.25 12.5437 16.9144 12.9167 16.5 12.9167H13.125V16.6667C13.125 17.1271 12.7894 17.5 12.375 17.5H11.625C11.2106 17.5 10.875 17.1271 10.875 16.6667V12.9167H7.5C7.08562 12.9167 6.75 12.5437 6.75 12.0833V11.25C6.75 10.7896 7.08562 10.4167 7.5 10.4167H10.875V6.66667C10.875 6.20625 11.2106 5.83333 11.625 5.83333H12.375C12.7894 5.83333 13.125 6.20625 13.125 6.66667V10.4167H16.5C16.9144 10.4167 17.25 10.7896 17.25 11.25V12.0833Z" fill="#6F7D09"/>
</svg>
