<svg width="25" height="25" viewBox="0 0 25 25" fill="none" xmlns="http://www.w3.org/2000/svg">
<path d="M13.2486 3.19591C12.7799 2.72728 12.0202 2.72728 11.5515 3.19591L3.15152 11.5959C2.68289 12.0645 2.68289 12.8243 3.15152 13.293C3.62015 13.7616 4.37995 13.7616 4.84858 13.293L5.20005 12.9415V20.8444C5.20005 21.5072 5.73731 22.0444 6.40005 22.0444H8.80005C9.46279 22.0444 10 21.5072 10 20.8444V18.4444C10 17.7817 10.5373 17.2444 11.2 17.2444H13.6C14.2628 17.2444 14.8 17.7817 14.8 18.4444V20.8444C14.8 21.5072 15.3373 22.0444 16 22.0444H18.4C19.0628 22.0444 19.6 21.5072 19.6 20.8444V12.9415L19.9515 13.293C20.4202 13.7616 21.1799 13.7616 21.6486 13.293C22.1172 12.8243 22.1172 12.0645 21.6486 11.5959L13.2486 3.19591Z" fill="#6F7D09"/>
</svg>
