<svg width="25" height="25" viewBox="0 0 25 25" fill="none" xmlns="http://www.w3.org/2000/svg">
<path d="M16.2998 14.5185H15.5098L15.2298 14.2385C16.2098 13.0563 16.7998 11.5215 16.7998 9.85186C16.7998 6.12889 13.8898 3.11111 10.2998 3.11111C6.7098 3.11111 3.7998 6.12889 3.7998 9.85186C3.7998 13.5748 6.7098 16.5926 10.2998 16.5926C11.9098 16.5926 13.3898 15.9807 14.5298 14.9644L14.7998 15.2548V16.0741L19.7998 21.2489L21.2898 19.7037L16.2998 14.5185ZM10.2998 14.5185C7.8098 14.5185 5.7998 12.4341 5.7998 9.85186C5.7998 7.26963 7.8098 5.18519 10.2998 5.18519C12.7898 5.18519 14.7998 7.26963 14.7998 9.85186C14.7998 12.4341 12.7898 14.5185 10.2998 14.5185Z" fill="#6F7D09"/>
</svg>
