<svg width="25" height="25" viewBox="0 0 25 25" fill="none" xmlns="http://www.w3.org/2000/svg">
<path d="M18.7409 22.0644C17.8609 22.3244 16.8209 22.4444 15.6009 22.4444H9.60094C8.38094 22.4444 7.34094 22.3244 6.46094 22.0644C6.68094 19.4644 9.35094 17.4144 12.6009 17.4144C15.8509 17.4144 18.5209 19.4644 18.7409 22.0644Z" stroke="#6F7D09" stroke-width="1.5" stroke-linecap="round" stroke-linejoin="round"/>
<path d="M15.6006 2.44444H9.60059C4.60059 2.44444 2.60059 4.44444 2.60059 9.44444V15.4444C2.60059 19.2244 3.74059 21.2944 6.46059 22.0644C6.68059 19.4644 9.35059 17.4144 12.6006 17.4144C15.8506 17.4144 18.5206 19.4644 18.7406 22.0644C21.4606 21.2944 22.6006 19.2244 22.6006 15.4444V9.44444C22.6006 4.44444 20.6006 2.44444 15.6006 2.44444ZM12.6006 14.6144C10.6206 14.6144 9.02058 13.0045 9.02058 11.0245C9.02058 9.04446 10.6206 7.44444 12.6006 7.44444C14.5806 7.44444 16.1806 9.04446 16.1806 11.0245C16.1806 13.0045 14.5806 14.6144 12.6006 14.6144Z" stroke="#6F7D09" stroke-width="1.5" stroke-linecap="round" stroke-linejoin="round"/>
<path d="M16.1805 11.0245C16.1805 13.0045 14.5805 14.6144 12.6005 14.6144C10.6205 14.6144 9.02051 13.0045 9.02051 11.0245C9.02051 9.04446 10.6205 7.44444 12.6005 7.44444C14.5805 7.44444 16.1805 9.04446 16.1805 11.0245Z" stroke="#6F7D09" stroke-width="1.5" stroke-linecap="round" stroke-linejoin="round"/>
</svg>
