<svg width="27" height="26" viewBox="0 0 27 26" fill="none" xmlns="http://www.w3.org/2000/svg">
<path d="M7.52938 14.4526H5.88232V25.2842H7.52938C7.98232 25.2842 8.35291 24.936 8.35291 24.5105V15.2263C8.35291 14.8008 7.98232 14.4526 7.52938 14.4526Z" fill="#BFAEA0"/>
<path d="M19.0589 14.4526C18.6059 14.4526 18.2354 14.8008 18.2354 15.2263V24.5105C18.2354 24.936 18.6059 25.2842 19.0589 25.2842H20.7059V14.4526H19.0589Z" fill="#BFAEA0"/>
<path d="M26.4706 12.9053C26.4706 6.06898 20.5708 0.526306 13.2941 0.526306C6.01744 0.526306 0.117676 6.06898 0.117676 12.9053C0.117676 14.3907 0.396029 15.8143 0.906617 17.1327C0.405911 17.9358 0.117676 18.8704 0.117676 19.8684C0.117676 22.5964 2.26544 24.854 5.05885 25.2285V14.5083C4.23697 14.6182 3.47273 14.8921 2.80073 15.2913C2.66238 14.646 2.58826 13.9776 2.58826 13.2921C2.58826 7.73704 7.3812 3.2342 13.2941 3.2342C19.2071 3.2342 24 7.73704 24 13.2921C24 13.976 23.9276 14.6445 23.7892 15.2913C23.1172 14.8905 22.3513 14.6182 21.5294 14.5068V25.2285C24.3228 24.8525 26.4706 22.5964 26.4706 19.8684C26.4706 18.8704 26.1824 17.9358 25.6817 17.1327C26.1923 15.8128 26.4706 14.3892 26.4706 12.9053Z" fill="#BFAEA0"/>
</svg>
