<svg width="20" height="21" viewBox="0 0 20 21" fill="none" xmlns="http://www.w3.org/2000/svg">
<path d="M11.2483 1.19591C10.7797 0.727279 10.0199 0.727279 9.55128 1.19591L1.15128 9.59591C0.682647 10.0645 0.682647 10.8243 1.15128 11.293C1.61991 11.7616 2.3797 11.7616 2.84833 11.293L3.1998 10.9415V18.8444C3.1998 19.5072 3.73706 20.0444 4.3998 20.0444H6.7998C7.46255 20.0444 7.9998 19.5072 7.9998 18.8444V16.4444C7.9998 15.7817 8.53706 15.2444 9.19981 15.2444H11.5998C12.2625 15.2444 12.7998 15.7817 12.7998 16.4444V18.8444C12.7998 19.5072 13.3371 20.0444 13.9998 20.0444H16.3998C17.0625 20.0444 17.5998 19.5072 17.5998 18.8444V10.9415L17.9513 11.293C18.4199 11.7616 19.1797 11.7616 19.6483 11.293C20.117 10.8243 20.117 10.0645 19.6483 9.59591L11.2483 1.19591Z" fill="#D2CBC1"/>
</svg>
