<svg width="25" height="25" viewBox="0 0 25 25" fill="none" xmlns="http://www.w3.org/2000/svg">
<path d="M18.74 22.0644C17.86 22.3244 16.82 22.4444 15.6 22.4444H9.59996C8.37996 22.4444 7.33996 22.3244 6.45996 22.0644C6.67996 19.4644 9.34996 17.4144 12.6 17.4144C15.85 17.4144 18.52 19.4644 18.74 22.0644Z" stroke="#D2CBC1" stroke-width="1.5" stroke-linecap="round" stroke-linejoin="round"/>
<path d="M15.6 2.44444H9.59998C4.59998 2.44444 2.59998 4.44444 2.59998 9.44444V15.4444C2.59998 19.2244 3.73998 21.2944 6.45998 22.0644C6.67998 19.4644 9.34998 17.4144 12.6 17.4144C15.85 17.4144 18.52 19.4644 18.74 22.0644C21.46 21.2944 22.6 19.2244 22.6 15.4444V9.44444C22.6 4.44444 20.6 2.44444 15.6 2.44444ZM12.6 14.6144C10.62 14.6144 9.01997 13.0045 9.01997 11.0245C9.01997 9.04446 10.62 7.44444 12.6 7.44444C14.58 7.44444 16.18 9.04446 16.18 11.0245C16.18 13.0045 14.58 14.6144 12.6 14.6144Z" stroke="#D2CBC1" stroke-width="1.5" stroke-linecap="round" stroke-linejoin="round"/>
<path d="M16.18 11.0245C16.18 13.0045 14.58 14.6144 12.6 14.6144C10.62 14.6144 9.02002 13.0045 9.02002 11.0245C9.02002 9.04446 10.62 7.44444 12.6 7.44444C14.58 7.44444 16.18 9.04446 16.18 11.0245Z" stroke="#D2CBC1" stroke-width="1.5" stroke-linecap="round" stroke-linejoin="round"/>
</svg>
