<svg width="25" height="25" viewBox="0 0 25 25" fill="none" xmlns="http://www.w3.org/2000/svg">
<path d="M16.3 14.5185H15.51L15.23 14.2385C16.21 13.0563 16.8 11.5215 16.8 9.85186C16.8 6.12889 13.89 3.11111 10.3 3.11111C6.71005 3.11111 3.80005 6.12889 3.80005 9.85186C3.80005 13.5748 6.71005 16.5926 10.3 16.5926C11.91 16.5926 13.39 15.9807 14.53 14.9644L14.8 15.2548V16.0741L19.8 21.2489L21.29 19.7037L16.3 14.5185ZM10.3 14.5185C7.81005 14.5185 5.80005 12.4341 5.80005 9.85186C5.80005 7.26963 7.81005 5.18519 10.3 5.18519C12.79 5.18519 14.8 7.26963 14.8 9.85186C14.8 12.4341 12.79 14.5185 10.3 14.5185Z" fill="#D2CBC1"/>
</svg>
