<svg width="24" height="25" viewBox="0 0 24 25" fill="none" xmlns="http://www.w3.org/2000/svg">
    <path d="M15.5 14.5185H14.71L14.43 14.2385C15.41 13.0563 16 11.5215 16 9.85186C16 6.12889 13.09 3.11111 9.5 3.11111C5.91 3.11111 3 6.12889 3 9.85186C3 13.5748 5.91 16.5926 9.5 16.5926C11.11 16.5926 12.59 15.9807 13.73 14.9644L14 15.2548V16.0741L19 21.2489L20.49 19.7037L15.5 14.5185V14.5185ZM9.5 14.5185C7.01 14.5185 5 12.4341 5 9.85186C5 7.26963 7.01 5.18519 9.5 5.18519C11.99 5.18519 14 7.26963 14 9.85186C14 12.4341 11.99 14.5185 9.5 14.5185Z" fill="#0B0C0B"/>
</svg>
