<svg width="24" height="25" viewBox="0 0 24 25" fill="none" xmlns="http://www.w3.org/2000/svg">
<path d="M18 19.3044H17.24C16.44 19.3044 15.68 19.6144 15.12 20.1744L13.41 21.8644C12.63 22.6344 11.36 22.6344 10.58 21.8644L8.87 20.1744C8.31 19.6144 7.54 19.3044 6.75 19.3044H6C4.34 19.3044 3 17.9745 3 16.3345V5.42442C3 3.78442 4.34 2.45445 6 2.45445H18C19.66 2.45445 21 3.78442 21 5.42442V16.3345C21 17.9645 19.66 19.3044 18 19.3044Z" stroke="#D2CBC1" stroke-width="1.5" stroke-miterlimit="10" stroke-linecap="round" stroke-linejoin="round"/>
<path d="M12.28 15.4045C12.13 15.4545 11.88 15.4545 11.72 15.4045C10.42 14.9545 7.5 13.1045 7.5 9.95445C7.5 8.56445 8.62 7.44444 10 7.44444C10.82 7.44444 11.54 7.83444 12 8.44444C12.46 7.83444 13.18 7.44444 14 7.44444C15.38 7.44444 16.5 8.56445 16.5 9.95445C16.49 13.1045 13.58 14.9545 12.28 15.4045Z" stroke="#D2CBC1" stroke-width="1.5" stroke-linecap="round" stroke-linejoin="round"/>
</svg>
